<?xml version="1.0" encoding="UTF-8" standalone="no"?>
<svg
   xmlns:dc="http://purl.org/dc/elements/1.1/"
   xmlns:cc="http://creativecommons.org/ns#"
   xmlns:rdf="http://www.w3.org/1999/02/22-rdf-syntax-ns#"
   xmlns:svg="http://www.w3.org/2000/svg"
   xmlns="http://www.w3.org/2000/svg"
   xmlns:sodipodi="http://sodipodi.sourceforge.net/DTD/sodipodi-0.dtd"
   xmlns:inkscape="http://www.inkscape.org/namespaces/inkscape"
   width="146.05mm"
   height="69.320831mm"
   viewBox="0 0 146.05 69.320831"
   version="1.1"
   id="svg8"
   inkscape:version="1.0.2 (e86c870879, 2021-01-15, custom)"
   sodipodi:docname="em_desenvolvimento.svg">
  <defs
     id="defs2" />
  <sodipodi:namedview
     id="base"
     pagecolor="#ffffff"
     bordercolor="#666666"
     borderopacity="1.0"
     inkscape:pageopacity="0.0"
     inkscape:pageshadow="2"
     inkscape:zoom="1.6614406"
     inkscape:cx="274.35373"
     inkscape:cy="121.88072"
     inkscape:document-units="mm"
     inkscape:current-layer="layer1"
     inkscape:document-rotation="0"
     showgrid="false"
     inkscape:window-width="1758"
     inkscape:window-height="1030"
     inkscape:window-x="144"
     inkscape:window-y="0"
     inkscape:window-maximized="0" />
  <metadata
     id="metadata5">
    <rdf:RDF>
      <cc:Work
         rdf:about="">
        <dc:format>image/svg+xml</dc:format>
        <dc:type
           rdf:resource="http://purl.org/dc/dcmitype/StillImage" />
        <dc:title></dc:title>
      </cc:Work>
    </rdf:RDF>
  </metadata>
  <g
     inkscape:label="Layer 1"
     inkscape:groupmode="layer"
     id="layer1"
     transform="translate(154.21428,15.119047)">
    <rect
       style="fill:#1b3c93;fill-opacity:1;stroke-width:5.05619;stroke-linecap:round;stroke-opacity:0.992167;paint-order:stroke fill markers;stop-color:#000000"
       id="rect833"
       width="146.05"
       height="69.320831"
       x="-154.21428"
       y="-15.119047"
       ry="2.6458333" />
    <g
       id="g879"
       transform="matrix(0.50951043,0,0,0.50951043,-5.6796503,-63.606803)"
       style="fill:#ffffff;fill-opacity:1;stroke:#f8ffff;stroke-width:1.96266836;stroke-miterlimit:4;stroke-dasharray:none;stroke-opacity:1;stroke-linecap:round;stroke-linejoin:round">
      <path
         style="fill:#ffffff;fill-opacity:1;stroke:#f8ffff;stroke-width:1.96266836;stroke-linecap:round;stroke-linejoin:round;stroke-miterlimit:4;stroke-dasharray:none;stroke-opacity:1"
         d="m -171.80115,187.12997 c 0,-47.87537 0,-47.87537 0,-47.87537"
         id="path845" />
      <path
         style="fill:#ffffff;fill-opacity:1;stroke:#f8ffff;stroke-width:1.96266836;stroke-linecap:round;stroke-linejoin:round;stroke-miterlimit:4;stroke-dasharray:none;stroke-opacity:1"
         d="m -171.80115,187.12997 47.74308,-23.93768"
         id="path845-2"
         sodipodi:nodetypes="cc" />
      <path
         style="fill:#ffffff;fill-opacity:1;stroke:#f8ffff;stroke-width:1.96266836;stroke-linecap:round;stroke-linejoin:round;stroke-miterlimit:4;stroke-dasharray:none;stroke-opacity:1"
         d="m -171.80115,139.2546 47.74308,23.93769"
         id="path845-0"
         sodipodi:nodetypes="cc" />
    </g>
    <g
       aria-label="Em desenvolvimento"
       id="text883"
       style="font-weight:bold;font-size:7.05556px;line-height:1.25;font-family:sans-serif;-inkscape-font-specification:'sans-serif Bold';fill:#ffffff;stroke-width:0.264583">
      <path
         d="m -113.71961,43.346058 1.05764,-5.050513 h 3.64492 l -0.12058,0.575331 h -2.96968 l -0.33072,1.570965 h 2.89388 l -0.12058,0.575331 h -2.89388 l -0.36518,1.757 h 3.17982 l -0.12058,0.571886 z"
         style="font-style:italic;font-variant:normal;font-weight:normal;font-stretch:normal;font-size:7.05556px;font-family:Arial;-inkscape-font-specification:'Arial Italic';fill:#ffffff;stroke-width:0.264583"
         id="path885" />
      <path
         d="m -109.09973,43.346058 0.76481,-3.658694 h 0.62356 l -0.12747,0.602892 q 0.34796,-0.389296 0.62012,-0.537435 0.27561,-0.148139 0.596,-0.148139 0.34107,0 0.56844,0.18259 0.23082,0.179145 0.30317,0.502984 0.27905,-0.34451 0.58567,-0.513319 0.31006,-0.172255 0.65112,-0.172255 0.4582,0 0.68557,0.217041 0.23083,0.217041 0.23083,0.609782 0,0.16881 -0.0792,0.558106 l -0.49265,2.356447 h -0.62356 l 0.50298,-2.418459 q 0.0655,-0.296278 0.0655,-0.423747 0,-0.179145 -0.11369,-0.282498 -0.11369,-0.103353 -0.32039,-0.103353 -0.27906,0 -0.56845,0.16881 -0.28938,0.16881 -0.4513,0.444418 -0.15848,0.272162 -0.27906,0.840604 l -0.37207,1.774225 h -0.62356 l 0.51677,-2.470135 q 0.0551,-0.251492 0.0551,-0.35829 0,-0.179145 -0.11369,-0.289389 -0.11024,-0.110243 -0.28939,-0.110243 -0.26527,0 -0.55811,0.16881 -0.28938,0.16881 -0.47197,0.471979 -0.18259,0.299723 -0.29973,0.857829 l -0.36173,1.729439 z"
         style="font-style:italic;font-variant:normal;font-weight:normal;font-stretch:normal;font-size:7.05556px;font-family:Arial;-inkscape-font-specification:'Arial Italic';fill:#ffffff;stroke-width:0.264583"
         id="path887" />
      <path
         d="m -98.792002,42.815513 q -0.533991,0.613227 -1.116212,0.613227 -0.520206,0 -0.868166,-0.382406 -0.34451,-0.385851 -0.34451,-1.116211 0,-0.668349 0.27216,-1.219565 0.27561,-0.554661 0.68558,-0.830268 0.41341,-0.275608 0.826822,-0.275608 0.682129,0 1.030084,0.658013 l 0.413412,-1.96715 h 0.620118 l -1.0542,5.050513 h -0.575332 z m -1.708768,-1.002524 q 0,0.382406 0.0758,0.602893 0.0758,0.220486 0.25838,0.368625 0.182594,0.144694 0.437531,0.144694 0.423747,0 0.768257,-0.440972 0.461643,-0.585667 0.461643,-1.446941 0,-0.434083 -0.227377,-0.678685 -0.227376,-0.244602 -0.571886,-0.244602 -0.223931,0 -0.409966,0.09991 -0.182591,0.09991 -0.365182,0.341065 -0.17914,0.237712 -0.30317,0.606337 -0.12402,0.368625 -0.12402,0.647678 z"
         style="font-style:italic;font-variant:normal;font-weight:normal;font-stretch:normal;font-size:7.05556px;font-family:Arial;-inkscape-font-specification:'Arial Italic';fill:#ffffff;stroke-width:0.264583"
         id="path889" />
      <path
         d="m -94.64755,42.102378 0.606337,0.06201 q -0.130913,0.451308 -0.602892,0.85783 -0.468533,0.406521 -1.119656,0.406521 -0.406522,0 -0.747587,-0.186035 -0.337619,-0.18948 -0.516764,-0.547771 -0.1757,-0.35829 -0.1757,-0.816488 0,-0.599447 0.275608,-1.160998 0.279052,-0.564996 0.720025,-0.837158 0.440972,-0.275608 0.954292,-0.275608 0.654569,0 1.043865,0.406521 0.392741,0.406522 0.392741,1.109322 0,0.268717 -0.04823,0.551215 h -2.694066 q -0.01378,0.106798 -0.01378,0.192926 0,0.513319 0.234266,0.785482 0.237712,0.268718 0.578777,0.268718 0.320394,0 0.630453,-0.210151 0.310058,-0.210151 0.482313,-0.606337 z m -1.812121,-0.906061 h 2.053278 q 0.0034,-0.09646 0.0034,-0.137804 0,-0.468533 -0.234266,-0.71658 -0.234267,-0.251492 -0.602893,-0.251492 -0.399631,0 -0.73036,0.275607 -0.327285,0.275608 -0.489204,0.830269 z"
         style="font-style:italic;font-variant:normal;font-weight:normal;font-stretch:normal;font-size:7.05556px;font-family:Arial;-inkscape-font-specification:'Arial Italic';fill:#ffffff;stroke-width:0.264583"
         id="path891" />
      <path
         d="m -93.352194,42.095487 0.623563,-0.0379 q 0,0.268718 0.08268,0.458198 0.08268,0.189481 0.303169,0.310059 0.223931,0.120579 0.52021,0.120579 0.413411,0 0.620117,-0.165365 0.206706,-0.165365 0.206706,-0.389296 0,-0.16192 -0.124024,-0.306614 -0.127468,-0.144694 -0.623562,-0.354845 -0.492649,-0.213596 -0.630453,-0.299723 -0.230822,-0.141249 -0.347955,-0.33073 -0.117133,-0.192925 -0.117133,-0.440972 0,-0.434083 0.344509,-0.744141 0.34451,-0.310059 0.964628,-0.310059 0.689019,0 1.04731,0.320394 0.361735,0.316949 0.375515,0.837159 l -0.609782,0.04134 q -0.01378,-0.33073 -0.234267,-0.523655 -0.220486,-0.192926 -0.623562,-0.192926 -0.32384,0 -0.502985,0.14814 -0.179145,0.148139 -0.179145,0.320394 0,0.172255 0.15503,0.303168 0.103353,0.08957 0.53399,0.275608 0.71658,0.310059 0.902615,0.489204 0.296279,0.285943 0.296279,0.69591 0,0.272162 -0.16881,0.53399 -0.165365,0.261827 -0.509874,0.420302 -0.341065,0.155029 -0.806153,0.155029 -0.633898,0 -1.078316,-0.313504 -0.444418,-0.313504 -0.420302,-1.019749 z"
         style="font-style:italic;font-variant:normal;font-weight:normal;font-stretch:normal;font-size:7.05556px;font-family:Arial;-inkscape-font-specification:'Arial Italic';fill:#ffffff;stroke-width:0.264583"
         id="path893" />
      <path
         d="m -87.195804,42.102378 0.606337,0.06201 q -0.130913,0.451308 -0.602892,0.85783 -0.468533,0.406521 -1.119656,0.406521 -0.406522,0 -0.747587,-0.186035 -0.337619,-0.18948 -0.516764,-0.547771 -0.1757,-0.35829 -0.1757,-0.816488 0,-0.599447 0.275608,-1.160998 0.279052,-0.564996 0.720025,-0.837158 0.440972,-0.275608 0.954292,-0.275608 0.654569,0 1.043865,0.406521 0.392741,0.406522 0.392741,1.109322 0,0.268717 -0.04823,0.551215 h -2.694066 q -0.01378,0.106798 -0.01378,0.192926 0,0.513319 0.234266,0.785482 0.237712,0.268718 0.578777,0.268718 0.320394,0 0.630453,-0.210151 0.310058,-0.210151 0.482313,-0.606337 z m -1.812121,-0.906061 h 2.053278 q 0.0034,-0.09646 0.0034,-0.137804 0,-0.468533 -0.234266,-0.71658 -0.234267,-0.251492 -0.602893,-0.251492 -0.399631,0 -0.73036,0.275607 -0.327285,0.275608 -0.489204,0.830269 z"
         style="font-style:italic;font-variant:normal;font-weight:normal;font-stretch:normal;font-size:7.05556px;font-family:Arial;-inkscape-font-specification:'Arial Italic';fill:#ffffff;stroke-width:0.264583"
         id="path895" />
      <path
         d="m -85.959013,43.346058 0.764812,-3.658694 h 0.564996 l -0.134359,0.637343 q 0.368626,-0.375515 0.68902,-0.54777 0.320394,-0.172255 0.654568,-0.172255 0.444418,0 0.69591,0.241157 0.254937,0.241156 0.254937,0.644233 0,0.203261 -0.08957,0.640788 l -0.465088,2.215198 h -0.623563 l 0.485759,-2.318551 q 0.07235,-0.337619 0.07235,-0.499539 0,-0.18259 -0.127469,-0.296278 -0.124023,-0.113689 -0.361735,-0.113689 -0.478869,0 -0.854384,0.34451 -0.372071,0.34451 -0.547771,1.181669 l -0.354845,1.701878 z"
         style="font-style:italic;font-variant:normal;font-weight:normal;font-stretch:normal;font-size:7.05556px;font-family:Arial;-inkscape-font-specification:'Arial Italic';fill:#ffffff;stroke-width:0.264583"
         id="path897" />
      <path
         d="m -81.111761,43.346058 -0.599447,-3.658694 h 0.606337 l 0.313504,2.015382 q 0.05168,0.33073 0.127469,1.078316 0.179145,-0.389296 0.458198,-0.89228 l 1.223009,-2.201418 h 0.658014 l -2.094619,3.658694 z"
         style="font-style:italic;font-variant:normal;font-weight:normal;font-stretch:normal;font-size:7.05556px;font-family:Arial;-inkscape-font-specification:'Arial Italic';fill:#ffffff;stroke-width:0.264583"
         id="path899" />
      <path
         d="m -78.397025,41.957684 q 0,-1.071426 0.630452,-1.774226 0.52021,-0.578776 1.364259,-0.578776 0.661459,0 1.064535,0.413412 0.406522,0.413411 0.406522,1.116211 0,0.630453 -0.254937,1.174778 -0.254938,0.540881 -0.726916,0.830269 -0.468533,0.289388 -0.988743,0.289388 -0.427192,0 -0.778592,-0.18259 -0.347955,-0.18259 -0.53399,-0.516765 -0.18259,-0.334174 -0.18259,-0.771701 z m 0.623562,-0.06201 q 0,0.516764 0.248047,0.785482 0.248047,0.265273 0.630453,0.265273 0.199816,0 0.396186,-0.07924 0.196371,-0.08268 0.365181,-0.248047 0.16881,-0.165364 0.285943,-0.375515 0.120578,-0.213596 0.192925,-0.458198 0.106798,-0.341065 0.106798,-0.654569 0,-0.496094 -0.251492,-0.768257 -0.248047,-0.275608 -0.627008,-0.275608 -0.292833,0 -0.53399,0.141249 -0.241157,0.137804 -0.437527,0.406522 -0.192926,0.268718 -0.285943,0.627008 -0.08957,0.354845 -0.08957,0.633898 z"
         style="font-style:italic;font-variant:normal;font-weight:normal;font-stretch:normal;font-size:7.05556px;font-family:Arial;-inkscape-font-specification:'Arial Italic';fill:#ffffff;stroke-width:0.264583"
         id="path901" />
      <path
         d="m -74.631531,43.346058 1.0542,-5.050513 h 0.623563 l -1.0542,5.050513 z"
         style="font-style:italic;font-variant:normal;font-weight:normal;font-stretch:normal;font-size:7.05556px;font-family:Arial;-inkscape-font-specification:'Arial Italic';fill:#ffffff;stroke-width:0.264583"
         id="path903" />
      <path
         d="m -72.092493,43.346058 -0.599447,-3.658694 h 0.606337 l 0.313504,2.015382 q 0.05168,0.33073 0.127469,1.078316 0.179145,-0.389296 0.458198,-0.89228 l 1.223009,-2.201418 h 0.658014 l -2.094619,3.658694 z"
         style="font-style:italic;font-variant:normal;font-weight:normal;font-stretch:normal;font-size:7.05556px;font-family:Arial;-inkscape-font-specification:'Arial Italic';fill:#ffffff;stroke-width:0.264583"
         id="path905" />
      <path
         d="m -68.60261,39.00179 0.148139,-0.706245 h 0.620117 l -0.148139,0.706245 z m -0.909506,4.344268 0.764812,-3.658694 h 0.623562 l -0.764812,3.658694 z"
         style="font-style:italic;font-variant:normal;font-weight:normal;font-stretch:normal;font-size:7.05556px;font-family:Arial;-inkscape-font-specification:'Arial Italic';fill:#ffffff;stroke-width:0.264583"
         id="path907" />
      <path
         d="m -67.923925,43.346058 0.764811,-3.658694 h 0.623563 l -0.127469,0.602892 q 0.347955,-0.389296 0.620118,-0.537435 0.275608,-0.148139 0.596002,-0.148139 0.341064,0 0.568441,0.18259 0.230821,0.179145 0.303169,0.502984 0.279052,-0.34451 0.585666,-0.513319 0.310059,-0.172255 0.651124,-0.172255 0.458198,0 0.685574,0.217041 0.230822,0.217041 0.230822,0.609782 0,0.16881 -0.07924,0.558106 l -0.492649,2.356447 h -0.623562 l 0.502984,-2.418459 q 0.06546,-0.296278 0.06546,-0.423747 0,-0.179145 -0.113688,-0.282498 -0.113689,-0.103353 -0.320395,-0.103353 -0.279052,0 -0.568441,0.16881 -0.289388,0.16881 -0.451307,0.444418 -0.158475,0.272162 -0.279053,0.840604 l -0.372071,1.774225 h -0.623563 l 0.516765,-2.470135 q 0.05512,-0.251492 0.05512,-0.35829 0,-0.179145 -0.113689,-0.289389 -0.110243,-0.110243 -0.289388,-0.110243 -0.265272,0 -0.558106,0.16881 -0.289388,0.16881 -0.471978,0.471979 -0.18259,0.299723 -0.299724,0.857829 l -0.361735,1.729439 z"
         style="font-style:italic;font-variant:normal;font-weight:normal;font-stretch:normal;font-size:7.05556px;font-family:Arial;-inkscape-font-specification:'Arial Italic';fill:#ffffff;stroke-width:0.264583"
         id="path909" />
      <path
         d="m -59.35597,42.102378 0.606338,0.06201 q -0.130914,0.451308 -0.602892,0.85783 -0.468534,0.406521 -1.119657,0.406521 -0.406522,0 -0.747586,-0.186035 -0.33762,-0.18948 -0.516765,-0.547771 -0.1757,-0.35829 -0.1757,-0.816488 0,-0.599447 0.275608,-1.160998 0.279053,-0.564996 0.720025,-0.837158 0.440973,-0.275608 0.954292,-0.275608 0.654569,0 1.043865,0.406521 0.392741,0.406522 0.392741,1.109322 0,0.268717 -0.04823,0.551215 h -2.694067 q -0.01378,0.106798 -0.01378,0.192926 0,0.513319 0.234266,0.785482 0.237712,0.268718 0.578777,0.268718 0.320394,0 0.630453,-0.210151 0.310059,-0.210151 0.482313,-0.606337 z m -1.812121,-0.906061 h 2.053278 q 0.0034,-0.09646 0.0034,-0.137804 0,-0.468533 -0.234266,-0.71658 -0.234267,-0.251492 -0.602892,-0.251492 -0.399632,0 -0.730361,0.275607 -0.327284,0.275608 -0.489204,0.830269 z"
         style="font-style:italic;font-variant:normal;font-weight:normal;font-stretch:normal;font-size:7.05556px;font-family:Arial;-inkscape-font-specification:'Arial Italic';fill:#ffffff;stroke-width:0.264583"
         id="path911" />
      <path
         d="m -58.11918,43.346058 0.764811,-3.658694 h 0.564996 l -0.134358,0.637343 q 0.368625,-0.375515 0.689019,-0.54777 0.320394,-0.172255 0.654569,-0.172255 0.444417,0 0.695909,0.241157 0.254938,0.241156 0.254938,0.644233 0,0.203261 -0.08957,0.640788 l -0.465088,2.215198 h -0.623563 l 0.485759,-2.318551 q 0.07235,-0.337619 0.07235,-0.499539 0,-0.18259 -0.127469,-0.296278 -0.124023,-0.113689 -0.361735,-0.113689 -0.478868,0 -0.854384,0.34451 -0.372071,0.34451 -0.547771,1.181669 l -0.354845,1.701878 z"
         style="font-style:italic;font-variant:normal;font-weight:normal;font-stretch:normal;font-size:7.05556px;font-family:Arial;-inkscape-font-specification:'Arial Italic';fill:#ffffff;stroke-width:0.264583"
         id="path913" />
      <path
         d="m -52.737935,42.839629 -0.103353,0.509874 q -0.223931,0.05857 -0.434082,0.05857 -0.372071,0 -0.592557,-0.182591 -0.165364,-0.137803 -0.165364,-0.375515 0,-0.120579 0.08957,-0.554661 l 0.444418,-2.125625 h -0.492649 l 0.09991,-0.482314 h 0.492649 l 0.18948,-0.89917 0.713135,-0.430638 -0.279053,1.329808 h 0.613228 l -0.103353,0.482314 h -0.609783 l -0.423747,2.022272 q -0.07924,0.385851 -0.07924,0.461643 0,0.110243 0.06201,0.16881 0.06546,0.05857 0.210151,0.05857 0.206706,0 0.368625,-0.04134 z"
         style="font-style:italic;font-variant:normal;font-weight:normal;font-stretch:normal;font-size:7.05556px;font-family:Arial;-inkscape-font-specification:'Arial Italic';fill:#ffffff;stroke-width:0.264583"
         id="path915" />
      <path
         d="m -52.124709,41.957684 q 0,-1.071426 0.630452,-1.774226 0.52021,-0.578776 1.364259,-0.578776 0.661459,0 1.064535,0.413412 0.406522,0.413411 0.406522,1.116211 0,0.630453 -0.254937,1.174778 -0.254938,0.540881 -0.726916,0.830269 -0.468533,0.289388 -0.988743,0.289388 -0.427192,0 -0.778592,-0.18259 -0.347955,-0.18259 -0.53399,-0.516765 -0.18259,-0.334174 -0.18259,-0.771701 z m 0.623562,-0.06201 q 0,0.516764 0.248047,0.785482 0.248047,0.265273 0.630453,0.265273 0.199816,0 0.396186,-0.07924 0.196371,-0.08268 0.365181,-0.248047 0.16881,-0.165364 0.285943,-0.375515 0.120578,-0.213596 0.192925,-0.458198 0.106798,-0.341065 0.106798,-0.654569 0,-0.496094 -0.251492,-0.768257 -0.248047,-0.275608 -0.627008,-0.275608 -0.292833,0 -0.53399,0.141249 -0.241157,0.137804 -0.437527,0.406522 -0.192926,0.268718 -0.285943,0.627008 -0.08957,0.354845 -0.08957,0.633898 z"
         style="font-style:italic;font-variant:normal;font-weight:normal;font-stretch:normal;font-size:7.05556px;font-family:Arial;-inkscape-font-specification:'Arial Italic';fill:#ffffff;stroke-width:0.264583"
         id="path917" />
    </g>
  </g>
</svg>
